# xmcd CD database file
#
# Track frame offsets:
#	150
#	27060
#	52092
#	78957
#
# Disc length: 1385 seconds
#
# Revision: 1
# Processed by: cddbd v1.5.1PL0 Copyright (c) Steve Scherf et al.
# Submitted via: CDex 1.51
#
DISCID=26056704
DTITLE=m-flo loves YOSHIKA - let go
DYEAR=1900
DGENRE=J ???
TTITLE0=let go
TTITLE1=The Other Side of Love
TTITLE2=let go -instrumental
TTITLE3=The Other Side of Love -instrumental-
EXTD=
EXTT0=
EXTT1=
EXTT2=
EXTT3=
PLAYORDER=
